<svg width="200" height="97" viewBox="0 0 200 97" fill="none" xmlns="http://www.w3.org/2000/svg">
<g clip-path="url(#clip0)">
<path d="M119.11 29.7548C118.414 29.7548 117.738 30.0452 117.235 30.529C116.752 31.0129 116.462 31.7097 116.462 32.4065V64.5548C116.462 65.271 116.732 65.929 117.235 66.4323C118.279 67.4774 119.942 67.4774 120.986 66.4323C121.469 65.9484 121.759 65.2516 121.759 64.5548V32.4065C121.759 31.6903 121.489 31.0323 120.986 30.529C120.483 30.0258 119.806 29.7355 119.11 29.7548ZM78.6451 41.0774C78.6451 39.6065 77.4464 38.4065 75.9964 38.4065C74.527 38.4065 73.3477 39.6065 73.3477 41.0774V64.5548C73.3477 66.0258 74.5463 67.2258 75.9964 67.2258C77.4464 67.2258 78.6451 66.0258 78.6451 64.5548V41.0774Z" fill="#888888"/>
<path d="M79.3797 32.4065C79.3603 33.2968 78.993 34.1484 78.355 34.7678C77.717 35.3871 76.8663 35.7355 75.9769 35.7355C75.0876 35.7355 74.2369 35.3871 73.5989 34.7678C72.9609 34.1484 72.5936 33.2968 72.5742 32.4065C72.5742 31.4968 72.9416 30.6258 73.5796 29.9871C74.2176 29.3484 75.0876 28.9807 75.9769 28.9807C76.8856 28.9807 77.7363 29.3484 78.3743 29.9871C79.0317 30.6452 79.3797 31.5161 79.3797 32.4065Z" fill="#C9C9C9"/>
<path d="M111.649 46.9032C109.097 41.1161 103.064 37.0323 96.1817 37.7484C93.8616 38 91.6189 38.7742 89.6469 40.0323C87.6749 41.2903 86.0315 42.9742 84.8135 44.9871C83.6148 46.9806 82.8801 49.2452 82.6868 51.5871C82.4934 53.929 82.8414 56.271 83.6921 58.4387C84.5621 60.6065 85.8962 62.5613 87.6362 64.129C89.3762 65.6968 91.4449 66.8387 93.6876 67.4581C95.9303 68.0774 98.3084 68.1935 100.59 67.7484C102.871 67.3032 105.037 66.3355 106.893 64.9226C107.202 64.6903 107.453 64.3806 107.647 64.0323C107.821 63.6839 107.917 63.2968 107.937 62.8903C107.975 61.4387 106.835 60.2194 105.385 60.1806C104.785 60.1613 104.186 60.3548 103.722 60.7032C101.885 62.1161 99.6037 62.8323 97.2837 62.7161C95.389 62.6194 93.5716 61.9806 92.0443 60.8774C90.4976 59.7742 89.3182 58.2645 88.6029 56.5032C88.4095 56.0194 88.6029 55.4581 89.0669 55.2064C89.2216 55.129 89.3762 55.0903 89.5502 55.0903H107.995C108.575 55.0903 109.174 54.9742 109.715 54.7613C110.257 54.5484 110.759 54.2 111.165 53.7935C111.571 53.3871 111.919 52.8839 112.132 52.3419C112.364 51.8 112.48 51.2194 112.48 50.6194C112.441 49.3226 112.171 48.0645 111.649 46.9032ZM97.7477 42.9355C99.7197 42.9355 101.653 43.5355 103.277 44.6387C104.921 45.7419 106.177 47.329 106.912 49.1677C106.97 49.3226 106.989 49.4968 106.97 49.671C106.931 50.0194 106.738 50.3097 106.429 50.4645C106.274 50.5419 106.119 50.5806 105.945 50.5806H89.5309C89.3569 50.5806 89.2022 50.5419 89.0476 50.4645C88.8929 50.3871 88.7769 50.271 88.6802 50.1355C88.5835 50 88.5255 49.8452 88.5062 49.671C88.4869 49.4968 88.5062 49.3419 88.5642 49.1677C89.2989 47.329 90.5556 45.7613 92.1989 44.6387C93.8423 43.5548 95.7757 42.9355 97.7477 42.9355ZM140.862 62.7161C138.967 62.7161 137.111 62.1742 135.526 61.1484C133.94 60.1226 132.664 58.6516 131.872 56.929C130.267 53.4065 130.866 49.2645 133.399 46.3419L129.378 42.9161C128.082 44.4258 127.096 46.1871 126.478 48.0839C125.859 49.9806 125.608 51.9742 125.762 53.9677C125.917 55.9613 126.458 57.8968 127.348 59.6774C128.256 61.4581 129.494 63.0452 131.002 64.3419C132.51 65.6387 134.269 66.6258 136.164 67.2452C138.058 67.8645 140.05 68.0968 142.041 67.9419C144.033 67.7871 145.966 67.2258 147.725 66.3161C149.504 65.4065 151.07 64.1484 152.365 62.6387L148.363 59.1935C147.435 60.2968 146.275 61.1871 144.98 61.7871C143.685 62.3871 142.254 62.7161 140.823 62.7161H140.862Z" fill="#888888"/>
<path d="M140.862 37.6516C138.696 37.6516 136.531 38.1161 134.559 39.0258C132.587 39.9355 130.827 41.2516 129.416 42.8968L133.418 46.3226C135.119 44.3484 137.536 43.129 140.127 42.9549C142.718 42.7613 145.289 43.6129 147.261 45.2968C149.233 47 150.47 49.4 150.683 51.9936C150.896 54.5871 150.064 57.1807 148.402 59.1742L152.404 62.6C154.26 60.3936 155.458 57.7032 155.845 54.8387C156.232 51.9742 155.787 49.0516 154.569 46.4387C153.351 43.8065 151.418 41.6 148.982 40.0323C146.565 38.4839 143.742 37.6516 140.862 37.6516Z" fill="#C9C9C9"/>
<path d="M68.4378 60.8C67.9738 60.3936 67.3938 60.1807 66.7944 60.1613C66.1951 60.1419 65.5957 60.3355 65.1124 60.6839C63.643 61.8065 61.903 62.4839 60.0856 62.6774C58.2489 62.8516 56.4122 62.5226 54.7689 61.7097C53.1255 60.8968 51.7335 59.6387 50.7668 58.071C48.7754 54.8774 48.7754 50.8323 50.7475 47.6387C51.7141 46.071 53.1062 44.8129 54.7495 43.9807C56.3929 43.1678 58.2296 42.8194 60.0663 42.9936C61.903 43.1678 63.643 43.8452 65.1124 44.9678C66.0984 45.7226 67.4904 45.7032 68.4378 44.8903C68.7278 44.6387 68.9791 44.3097 69.1338 43.9613C69.2885 43.6129 69.3658 43.2065 69.3658 42.8194C69.3658 42.4323 69.2691 42.0452 69.0951 41.6968C68.9211 41.3484 68.6698 41.0387 68.3604 40.8065C66.1177 39.0839 63.4303 38.0387 60.627 37.7678C57.8236 37.4968 54.9815 38.0194 52.4488 39.2774C49.9161 40.5355 47.7894 42.471 46.3007 44.8903C44.812 47.3097 44 50.0194 44 52.8645C44 55.6903 44.7927 58.4774 46.3007 60.8774C47.8087 63.2774 49.9354 65.2129 52.4682 66.4516C55.0009 67.6903 57.8429 68.2129 60.6463 67.9226C63.4497 67.6323 66.1371 66.5678 68.3604 64.8452C68.9791 64.3613 69.3465 63.6258 69.3658 62.8516C69.3658 62.0581 69.0371 61.3226 68.4378 60.8Z" fill="#888888"/>
</g>
<defs>
<clipPath id="clip0">
<rect width="112" height="39" fill="white" transform="translate(44 29)"/>
</clipPath>
</defs>
</svg>
