<svg width="48" height="48" viewBox="0 0 48 48" fill="none" xmlns="http://www.w3.org/2000/svg">
<g clip-path="url(#clip0)">
<path d="M23.9947 47.4358C36.9403 47.4358 47.4348 36.9413 47.4348 23.9957C47.4348 11.0501 36.9403 0.555664 23.9947 0.555664C11.0492 0.555664 0.554688 11.0501 0.554688 23.9957C0.554688 36.9413 11.0492 47.4358 23.9947 47.4358Z" stroke="#13335F" stroke-width="1.2857" stroke-miterlimit="10"/>
<path d="M25.3846 14.2202H22.6152V25.3846H25.3846V14.2202Z" fill="#13335F"/>
<path d="M24.1644 23.0854L22.6113 25.3784L29.1958 29.838L30.7489 27.545L24.1644 23.0854Z" fill="#13335F"/>
<path d="M23.9959 11.4334C30.9324 11.4334 36.558 17.059 36.558 23.9955C36.558 30.932 30.9324 36.5577 23.9959 36.5577C17.0594 36.5577 11.4338 30.932 11.4338 23.9955C11.4338 17.059 17.0594 11.4334 23.9959 11.4334ZM23.9959 7.75244C15.0366 7.75244 7.74414 15.0449 7.74414 24.0042C7.74414 32.9635 15.0366 40.256 23.9959 40.256C32.9552 40.256 40.2477 32.9635 40.2477 24.0042C40.2477 15.0362 32.9552 7.75244 23.9959 7.75244Z" fill="#13335F"/>
</g>
<defs>
<clipPath id="clip0">
<rect width="48" height="48" fill="white"/>
</clipPath>
</defs>
</svg>
