<svg width="200" height="97" viewBox="0 0 200 97" fill="none" xmlns="http://www.w3.org/2000/svg">
<path fill-rule="evenodd" clip-rule="evenodd" d="M95.85 43.0005H90V54.0005H93.33V45.6588H93.69L97.65 54.0005H100.62L104.49 45.6588H104.94V54.0005H108V43.0005H102.33L99 50.0588L95.85 43.0005Z" fill="#888888"/>
<path fill-rule="evenodd" clip-rule="evenodd" d="M117.993 51.3422H112.116V49.6005H117.993C118.26 49.6005 118.616 50.0588 118.616 50.5172C118.616 50.9755 118.26 51.3422 117.993 51.3422ZM121.733 45.6588C121.644 43.9172 120.575 43.0005 118.527 43.0005H109V54.0005H118.884C120.932 53.7255 121.911 53.3588 122 50.9755C122 49.5088 121.288 48.6838 120.397 48.4088C121.555 47.6755 121.733 47.3088 121.733 45.6588ZM117.993 45.6588C118.26 45.6588 118.527 46.1172 118.527 46.5755C118.527 46.9422 118.26 47.3088 117.993 47.3088H112.116V45.6588H117.993Z" fill="#888888"/>
<path fill-rule="evenodd" clip-rule="evenodd" d="M140.919 49.6005L142.764 45.6588H143.554L145.486 49.6005H140.919ZM162 45.6588V43.0005H150.845V53.6338L145.574 43.0005H140.831L135.473 53.8172V51.9838C135.473 50.4255 134.77 50.0588 134.155 49.7838C134.858 49.4172 135.649 49.0505 135.649 46.3005C135.649 44.4672 135.122 43.0005 133.189 43.0005H123V54.0005H126.074V51.3422H131.959C132.223 51.3422 132.399 51.6172 132.486 52.0755V54.0005H138.811L139.689 52.0755H146.804L147.858 54.0005H162V51.3422H153.919V49.6005H162V47.3088H153.919V45.6588H162ZM131.52 48.5005H126.074V45.7505H131.432C132.223 45.7505 132.662 46.5755 132.662 47.3088C132.574 47.8588 132.223 48.5005 131.52 48.5005Z" fill="#888888"/>
<path fill-rule="evenodd" clip-rule="evenodd" d="M175.819 54.0005V51.9838C175.819 50.4255 175.097 50.0588 174.465 49.7838C175.188 49.4172 176 49.0505 176 46.3005C176 44.4672 175.458 43.0005 173.472 43.0005H163V54.0005H166.16V51.3422H172.208C172.479 51.3422 172.66 51.6172 172.75 52.0755V54.0005H175.819ZM171.757 48.5005H166.16V45.7505H171.667C172.479 45.7505 172.931 46.5755 172.931 47.3088C172.84 47.8588 172.479 48.5005 171.757 48.5005Z" fill="#888888"/>
<path fill-rule="evenodd" clip-rule="evenodd" d="M25 50.7278H32.3475L54.6525 68.0005H62L47.13 50.7278H62V47.5389H47.13L62 30.0005H54.74L32.3475 47.5389H28.0615L25 50.7278Z" fill="#888888"/>
<path fill-rule="evenodd" clip-rule="evenodd" d="M79.9683 45.6588H88V43.0005H77V54.0005H88V51.3422H79.9683V49.6005H88V47.3088H79.9683V45.6588Z" fill="#888888"/>
</svg>
