<svg width="245" height="43" viewBox="0 0 245 43" fill="none" xmlns="http://www.w3.org/2000/svg">
<rect x="0.208984" width="244" height="43" rx="20" fill="#D6F3F9"/>
<path d="M61.3743 13.4161V14.9096C60.3 13.6459 58.7819 13.0025 57.1236 12.9795C53.0831 12.9565 50.4206 15.6449 50.3972 19.9646C50.4206 24.3303 53.2699 26.9267 57.1236 26.9037C58.8519 26.9037 60.3233 26.2374 61.3743 24.9736V26.5131C61.3743 27.685 61.0941 28.627 60.6036 29.3163C59.9496 30.3503 58.7819 30.9248 57.3338 30.9707C56.166 30.9937 54.9983 30.626 54.1575 29.8678C53.6436 29.4542 53.2699 28.8568 53.0831 28.2134L50.5841 29.1095C50.9577 30.1665 51.5183 31.0626 52.2657 31.7749C53.5736 33.0157 55.3719 33.659 57.4272 33.659C59.646 33.659 61.5145 32.74 62.7523 31.2005C63.7099 29.9597 64.2938 28.3743 64.2938 26.5131V13.4161H61.3743ZM57.4039 24.3533C54.9515 24.3533 53.1999 22.6529 53.1999 19.9416C53.1999 17.2763 54.9515 15.507 57.4039 15.507C59.3891 15.507 61.3276 16.9546 61.351 19.8038V19.8267V19.8497V19.8957C61.3043 22.6759 59.5526 24.3533 57.4039 24.3533Z" fill="#13335F"/>
<path d="M78.3304 13.4391V19.8038C78.3304 23.2044 76.7889 24.7439 74.5001 24.7439C72.5149 24.7439 70.9267 23.4572 70.9267 20.4471V13.4391H68.124V20.585C68.124 25.7089 70.7866 27.2714 74.2432 27.2714C76.1817 27.2714 77.5129 26.5131 78.3537 25.2724V26.9037H81.1564V13.4391H78.3304Z" fill="#13335F"/>
<path d="M92.8343 12.9795C91.0359 12.9795 89.3777 13.6918 88.2099 15.0245V13.462H85.197V33.2684H88.2099V25.4102C89.3543 26.6969 90.9658 27.4092 92.7642 27.4092C96.0807 27.3632 98.9768 24.9506 99.2337 20.539H99.257C99.4205 15.8516 96.3843 13.0254 92.8343 12.9795ZM92.2504 24.9047C90.2885 24.9277 88.35 23.4801 88.2099 20.7458V20.0105C88.3033 17.1843 90.125 15.461 92.3672 15.461C94.6327 15.461 96.5478 17.3222 96.4777 20.3092C96.3143 23.4341 94.2823 24.8587 92.2504 24.9047Z" fill="#13335F"/>
<path d="M111.589 13.4391L107.525 23.4342L103.017 13.4391H99.9812L106.147 26.8119L103.555 33.1766H106.567L114.602 13.4161H111.589V13.4391Z" fill="#13335F"/>
<path d="M40.9846 20.9831C40.9846 27.4422 35.6622 32.6783 29.0968 32.6783C22.5313 32.6783 17.209 27.4422 17.209 20.9831C17.209 14.524 22.5313 9.28784 29.0968 9.28784C35.6622 9.28784 40.9846 14.524 40.9846 20.9831Z" fill="#88E1F5"/>
<path d="M36.0797 25.6017L33.7676 27.8763L42.025 36L44.3371 33.7254L36.0797 25.6017Z" fill="#13335F"/>
<path fill-rule="evenodd" clip-rule="evenodd" d="M29.0965 15.4686C26.0007 15.4686 23.4911 17.9375 23.4911 20.9831C23.4911 24.0287 26.0007 26.4977 29.0965 26.4977C32.1922 26.4977 34.7018 24.0287 34.7018 20.9831C34.7018 17.9375 32.1922 15.4686 29.0965 15.4686ZM20.6885 20.9831C20.6885 16.4147 24.4529 12.7113 29.0965 12.7113C33.7401 12.7113 37.5045 16.4147 37.5045 20.9831C37.5045 25.5515 33.7401 29.2549 29.0965 29.2549C24.4529 29.2549 20.6885 25.5515 20.6885 20.9831Z" fill="#13335F"/>
<path d="M123.944 8L123.944 35.5727" stroke="#13335F" stroke-width="2"/>
<path d="M135.377 12.7867V11.9044H134.284L134.298 18.5218H135.391V14.8409C135.433 13.5725 136.372 12.7453 137.661 12.9246V11.9044C136.568 11.863 135.811 12.1939 135.377 12.7867Z" fill="#13335F"/>
<path d="M144.733 15.2407C144.733 15.2407 144.733 14.3721 144.453 13.6966C143.976 12.4696 142.785 11.6838 141.412 11.6838C139.576 11.6838 138.048 13.2692 138.048 15.1993C138.048 17.1294 139.576 18.701 141.412 18.701C142.771 18.701 143.92 17.9566 144.382 16.8537L143.402 16.4814C143.093 17.1983 142.351 17.6533 141.412 17.6533C140.291 17.6533 139.366 16.8123 139.155 15.6818H144.719L144.733 15.2407ZM139.141 14.7995C139.31 13.6139 140.263 12.7178 141.412 12.7178C142.266 12.7178 142.981 13.1451 143.317 13.8207C143.514 14.1102 143.64 14.5376 143.668 14.7995H139.141Z" fill="#13335F"/>
<path d="M152.269 13.7655C151.834 12.5523 150.629 11.7527 149.186 11.7527C147.308 11.7527 145.78 13.3244 145.78 15.2407C145.78 17.157 147.308 18.7148 149.186 18.7148C150.559 18.7148 151.694 17.9979 152.156 16.895L151.19 16.5366C150.923 17.1707 150.223 17.7084 149.186 17.7084C147.826 17.7084 146.887 16.6193 146.887 15.2407C146.887 13.8758 147.826 12.7591 149.186 12.7591C150.279 12.7591 150.979 13.3381 151.274 14.1102L152.269 13.7655Z" fill="#13335F"/>
<path d="M154.837 12.7867V11.9044H153.744L153.758 18.5218H154.851V14.8409C154.893 13.5725 155.832 12.7453 157.121 12.9246V11.9044C156.028 11.863 155.271 12.1939 154.837 12.7867Z" fill="#13335F"/>
<path d="M163.482 11.9181V15.1028C163.482 16.7985 162.823 17.7084 161.436 17.7084C160.371 17.7084 159.502 17.088 159.502 15.4612V11.9044H158.395V15.5026C158.395 17.9152 159.712 18.7148 161.352 18.7148C162.361 18.7148 163.047 18.3288 163.482 17.6946V18.5218H164.575V11.9181H163.482Z" fill="#13335F"/>
<path d="M169.605 12.8694V11.9044H168.176V9.80884H167.055V11.9044H165.836V12.8694H167.055V16.9226C167.055 17.9841 167.489 18.5218 168.414 18.5218H169.605V17.5016L168.779 17.4878C168.4 17.4878 168.176 17.35 168.176 16.7572V12.8694H169.605Z" fill="#13335F"/>
<path d="M174.074 11.6976C172.841 11.6976 171.818 12.1525 171.173 13.3106L172.042 13.7655C172.504 12.9935 173.149 12.6902 174.046 12.704C174.859 12.7178 175.517 13.0762 175.587 13.9172C175.587 14.2618 175.377 14.3997 175.069 14.3997H173.78C172.883 14.3997 172.308 14.5238 171.874 14.8409C171.285 15.2544 170.963 15.9024 170.991 16.5917C171.005 17.8738 172.07 18.7148 173.499 18.7148C174.34 18.7148 175.097 18.3564 175.587 17.7498V18.5494C175.938 18.5494 176.386 18.5494 176.694 18.5494V14.1102C176.694 12.5937 175.545 11.6976 174.074 11.6976ZM173.485 17.7498C172.743 17.736 172.042 17.3638 172.028 16.5917C171.986 15.7645 172.673 15.3096 173.794 15.3096C174.34 15.3096 175.097 15.3096 175.587 15.282V15.6542C175.545 16.9915 174.732 17.7636 173.485 17.7498Z" fill="#13335F"/>
<path d="M185.925 11.6976C184.944 11.6976 184.202 12.249 183.795 13.0486C183.375 12.2077 182.562 11.6976 181.483 11.6976C180.726 11.7114 180.096 12.056 179.675 12.5799V11.9044H178.568V18.5218H179.675V14.3445C179.759 13.3244 180.53 12.704 181.385 12.704C182.324 12.704 183.024 13.3244 183.024 14.4135L183.01 18.5218H184.103V14.4686C184.117 13.4209 184.916 12.704 185.827 12.704C186.752 12.704 187.509 13.283 187.509 14.4135L187.495 18.5218H188.588V14.4686C188.588 12.8418 187.509 11.6838 185.925 11.6976Z" fill="#13335F"/>
<path d="M196.749 15.2407C196.749 15.2407 196.749 14.3721 196.469 13.6966C195.992 12.4696 194.801 11.6838 193.428 11.6838C191.592 11.6838 190.065 13.2692 190.065 15.1993C190.065 17.1294 191.592 18.701 193.428 18.701C194.787 18.701 195.936 17.9566 196.399 16.8537L195.418 16.4814C195.109 17.1983 194.367 17.6533 193.428 17.6533C192.307 17.6533 191.382 16.8123 191.172 15.6818H196.735L196.749 15.2407ZM191.158 14.7995C191.326 13.6139 192.279 12.7178 193.428 12.7178C194.283 12.7178 194.997 13.1451 195.334 13.8207C195.53 14.1102 195.656 14.5376 195.684 14.7995H191.158Z" fill="#13335F"/>
<path d="M201.72 11.6838C200.781 11.6838 199.955 12.1112 199.422 12.8694V11.9044H198.343L198.329 18.5218H199.422V15.0476C199.478 13.5725 200.431 12.6626 201.678 12.704C202.701 12.7315 203.556 13.3106 203.556 14.9374V18.5218H204.649V14.896C204.649 12.4972 203.234 11.6838 201.72 11.6838Z" fill="#13335F"/>
<path d="M209.346 12.8694V11.9044H207.917V9.80884H206.796V11.9044H205.577V12.8694H206.796V16.9226C206.796 17.9841 207.23 18.5218 208.155 18.5218H209.346V17.5016L208.52 17.4878C208.141 17.4878 207.917 17.35 207.917 16.7572V12.8694H209.346Z" fill="#13335F"/>
<path d="M217.209 15.1993C217.209 13.2279 215.766 11.6838 213.846 11.6838C211.926 11.6838 210.483 13.2416 210.483 15.1993C210.483 17.1294 211.968 18.7148 213.846 18.7148C215.78 18.7148 217.209 17.1845 217.209 15.1993ZM216.102 15.1993C216.102 16.6331 215.219 17.6671 213.846 17.6671C212.5 17.6671 211.576 16.5641 211.576 15.1993C211.576 13.8069 212.486 12.7453 213.846 12.7453C215.205 12.7453 216.102 13.7793 216.102 15.1993Z" fill="#13335F"/>
<path d="M142.748 31.3155C142.257 31.3155 142.019 31.2466 141.809 30.9985C141.655 30.8468 141.487 30.6538 141.305 30.4332C141.613 29.9369 141.823 29.3717 141.921 28.7375C141.991 28.2688 142.033 27.7587 142.019 27.2348L140.94 27.3175C140.954 27.7724 140.912 28.2688 140.842 28.6961C140.786 28.9994 140.688 29.2752 140.576 29.5371C139.749 28.4755 138.852 27.2486 138.236 26.5041C139.385 25.7321 139.931 25.0427 139.847 24.0639C139.721 22.9334 138.712 22.189 137.577 22.3268C136.47 22.4509 135.685 23.416 135.769 24.5189C135.811 25.0979 136.204 25.6631 136.666 26.2422C135.979 26.5868 135.321 26.9315 134.858 27.5794C134.088 28.5858 134.018 29.8266 134.634 30.8744C135.181 31.8394 136.316 32.5012 137.703 32.4598C138.852 32.4047 139.875 31.9773 140.632 31.2604C140.758 31.412 140.87 31.5499 140.996 31.6602C141.347 32.0738 141.697 32.3219 142.384 32.3082H143.35V31.3155H142.748ZM137.241 25.2909C137.016 24.9738 136.848 24.6843 136.848 24.381C136.82 23.8433 137.213 23.416 137.731 23.3608C138.264 23.3332 138.698 23.6503 138.782 24.2156C138.824 24.5878 138.656 24.9325 138.152 25.346C138.025 25.4563 137.857 25.5666 137.675 25.6907L137.605 25.7321C137.465 25.5666 137.325 25.4012 137.241 25.2909ZM137.675 31.4396C136.666 31.481 135.853 30.9847 135.489 30.2678C135.139 29.5922 135.209 28.8202 135.685 28.1998C136.036 27.7173 136.666 27.4002 137.339 27.0418C137.969 27.8138 139.006 29.2614 139.959 30.447C139.371 31.0398 138.572 31.3983 137.675 31.4396Z" fill="#13335F"/>
<path d="M152.193 27.1383C151.927 26.1319 150.932 25.4701 149.629 25.4701C148.326 25.4701 147.289 26.3938 147.289 27.5243C147.289 28.448 147.877 29.1373 148.858 29.3579C149.166 29.4268 149.587 29.5371 150.119 29.6336C150.792 29.7715 151.058 30.0748 151.058 30.5435C151.058 31.1501 150.554 31.5361 149.741 31.5361C148.83 31.5361 148.256 31.1501 148.129 30.5849L147.092 30.7917C147.331 31.867 148.34 32.5012 149.741 32.5012C151.128 32.5012 152.123 31.6878 152.123 30.5297C152.123 29.5785 151.605 28.8754 150.456 28.6272C150.091 28.5583 149.671 28.4618 149.166 28.3515C148.606 28.2274 148.34 27.9103 148.354 27.4416C148.382 26.8074 148.956 26.4352 149.657 26.4352C150.358 26.4214 150.988 26.766 151.142 27.3726L152.193 27.1383Z" fill="#13335F"/>
<path d="M159.991 29.027C159.991 29.027 159.991 28.1585 159.711 27.4829C159.235 26.2559 158.044 25.4701 156.67 25.4701C154.835 25.4701 153.307 27.0556 153.307 28.9856C153.307 30.9157 154.835 32.4874 156.67 32.4874C158.03 32.4874 159.179 31.7429 159.641 30.64L158.66 30.2678C158.352 30.9847 157.609 31.4396 156.67 31.4396C155.549 31.4396 154.624 30.5986 154.414 29.4682H159.977L159.991 29.027ZM154.4 28.5858C154.568 27.4002 155.521 26.5041 156.67 26.5041C157.525 26.5041 158.24 26.9315 158.576 27.607C158.772 27.8965 158.898 28.3239 158.926 28.5858H154.4Z" fill="#13335F"/>
<path d="M164.122 32.3082V31.288L163.309 31.2742C162.931 31.2742 162.707 31.1363 162.707 30.5435L162.693 22.5198H161.572V30.7089C161.572 31.7705 162.006 32.3082 162.945 32.3082H164.122Z" fill="#13335F"/>
<path d="M171.938 29.027C171.938 29.027 171.938 28.1585 171.658 27.4829C171.182 26.2559 169.99 25.4701 168.617 25.4701C166.781 25.4701 165.254 27.0556 165.254 28.9856C165.254 30.9157 166.781 32.4874 168.617 32.4874C169.976 32.4874 171.126 31.7429 171.588 30.64L170.607 30.2678C170.299 30.9847 169.556 31.4396 168.617 31.4396C167.496 31.4396 166.571 30.5986 166.361 29.4682H171.924L171.938 29.027ZM166.347 28.5858C166.515 27.4002 167.468 26.5041 168.617 26.5041C169.472 26.5041 170.187 26.9315 170.523 27.607C170.719 27.8965 170.845 28.3239 170.873 28.5858H166.347Z" fill="#13335F"/>
<path d="M176.391 31.4948C175.032 31.4948 174.093 30.4056 174.093 29.027C174.093 27.6622 175.032 26.5455 176.391 26.5455C177.484 26.5455 178.185 27.1245 178.479 27.8965L179.474 27.5519C179.04 26.3387 177.835 25.5391 176.391 25.5391C174.513 25.5391 172.986 27.1107 172.986 29.027C172.986 30.7779 174.261 32.2116 175.887 32.4598L175.677 32.7355V33.3559H176.84C177.05 33.3559 177.162 33.48 177.162 33.6316C177.162 33.7971 177.05 33.9487 176.84 33.9487H175.677V34.5967H177.036C177.54 34.5967 177.891 34.1417 177.891 33.6868C177.905 33.2732 177.638 32.7355 177.008 32.7355H176.531L176.742 32.4874C177.961 32.3771 178.942 31.7016 179.362 30.6814L178.395 30.3229C178.129 30.9571 177.428 31.4948 176.391 31.4948Z" fill="#13335F"/>
<path d="M182.365 23.8433C182.323 23.5263 182.491 23.2781 182.729 23.2781C182.967 23.2781 183.079 23.3608 183.304 23.7193C183.612 24.2431 184.088 24.5464 184.635 24.5464C185.406 24.5464 185.98 23.802 185.896 22.9748H184.943C185.069 23.347 184.915 23.6228 184.635 23.6228C184.411 23.6228 184.256 23.4987 184.004 23.1402C183.696 22.6301 183.276 22.3682 182.729 22.3682C181.972 22.3682 181.398 23.0437 181.454 23.8433H182.365ZM183.626 25.4839C182.393 25.4839 181.37 25.9389 180.725 27.0969L181.594 27.5519C182.056 26.7798 182.701 26.4765 183.598 26.4903C184.411 26.5041 185.069 26.8625 185.139 27.7035C185.139 28.0482 184.929 28.186 184.621 28.186H183.332C182.435 28.186 181.86 28.3101 181.426 28.6272C180.837 29.0408 180.515 29.6887 180.543 30.3781C180.557 31.6602 181.622 32.5012 183.051 32.5012C183.892 32.5012 184.649 32.1427 185.139 31.5361V32.3357C185.49 32.3357 185.938 32.3357 186.246 32.3357V27.8965C186.246 26.38 185.097 25.4839 183.626 25.4839ZM183.037 31.5361C182.295 31.5223 181.594 31.1501 181.58 30.3781C181.538 29.5509 182.225 29.0959 183.346 29.0959C183.892 29.0959 184.649 29.0959 185.139 29.0684V29.4406C185.097 30.7779 184.285 31.5499 183.037 31.5361Z" fill="#13335F"/>
<path d="M194.314 28.9856C194.314 27.0142 192.871 25.4701 190.951 25.4701C189.031 25.4701 187.588 27.028 187.588 28.9856C187.588 30.9157 189.073 32.5012 190.951 32.5012C192.885 32.5012 194.314 30.9709 194.314 28.9856ZM193.207 28.9856C193.207 30.4194 192.324 31.4534 190.951 31.4534C189.606 31.4534 188.681 30.3505 188.681 28.9856C188.681 27.5932 189.592 26.5317 190.951 26.5317C192.31 26.5317 193.207 27.5657 193.207 28.9856Z" fill="#13335F"/>
</svg>
