<svg width="244" height="43" viewBox="0 0 244 43" fill="none" xmlns="http://www.w3.org/2000/svg">
<rect width="244" height="43" rx="20" fill="#D6F3F9"/>
<path d="M129.026 21.916C127.738 21.916 126.611 22.215 125.622 22.79C124.656 23.365 124.173 24.239 124.173 25.458V25.596C124.173 26.631 124.541 27.505 125.3 28.195C126.059 28.862 127.071 29.207 128.29 29.207C130.038 29.207 131.418 28.425 132.43 26.838H132.453V29H134.201V21.065C134.201 20.306 134.086 19.639 133.833 19.041C133.097 17.362 131.602 16.511 129.348 16.511C126.91 16.511 125.231 17.569 124.311 19.685L125.783 20.513C126.542 18.903 127.715 18.098 129.302 18.098C131.395 18.098 132.43 19.087 132.43 21.088V21.916H129.026ZM132.43 23.825C132.43 24.952 132.062 25.849 131.349 26.562C130.636 27.275 129.716 27.62 128.612 27.62C127.071 27.62 125.967 26.815 125.967 25.458C126.036 23.848 127.6 23.365 129.003 23.388H132.43V23.825ZM137.222 22.836C137.222 24.584 137.751 26.079 138.809 27.321C139.89 28.563 141.27 29.184 142.972 29.184C145.019 29.184 146.629 28.241 147.756 26.378V29H149.504V10.278H147.733V19.294C146.468 17.431 144.881 16.511 142.972 16.511C141.293 16.511 139.913 17.155 138.832 18.42C137.751 19.685 137.222 21.157 137.222 22.836ZM143.34 27.597C142.029 27.597 140.994 27.137 140.212 26.24C139.43 25.32 139.039 24.193 139.039 22.882C139.039 21.525 139.43 20.375 140.212 19.478C140.994 18.558 142.029 18.098 143.34 18.098C144.582 18.098 145.617 18.581 146.468 19.524C147.319 20.467 147.756 21.548 147.756 22.813C147.756 24.124 147.342 25.251 146.491 26.194C145.663 27.137 144.605 27.597 143.34 27.597ZM163.715 29V21.939C163.715 20.858 164.014 19.961 164.635 19.248C165.256 18.512 166.084 18.144 167.119 18.144C169.258 18.144 170.293 19.639 170.293 21.847V29H172.087V21.41C172.087 18.466 170.431 16.511 167.556 16.511C165.739 16.511 164.29 17.316 163.232 18.949C162.473 17.316 161.162 16.488 159.299 16.488C157.551 16.488 156.378 17.27 155.343 18.857V16.718H153.572V29H155.366V22.008C155.366 20.95 155.665 20.03 156.286 19.271C156.907 18.512 157.735 18.121 158.77 18.121C160.886 18.121 161.944 19.662 161.944 21.801V29H163.715ZM175.551 12.325C175.551 13.061 176.149 13.659 176.885 13.659C177.644 13.659 178.242 13.061 178.242 12.325C178.242 11.566 177.644 10.968 176.885 10.968C176.149 10.968 175.551 11.566 175.551 12.325ZM177.805 16.718H175.988V29H177.805V16.718ZM189.992 25.504C189.992 24.745 189.693 24.055 189.118 23.48C188.451 22.79 187.37 22.284 185.898 21.962C183.621 21.479 183.023 21.042 183.023 20.03C183.023 19.501 183.276 19.064 183.759 18.673C184.242 18.282 184.84 18.098 185.507 18.098C186.772 18.098 187.738 18.788 188.382 20.168L189.854 19.363C189.026 17.454 187.577 16.511 185.507 16.511C184.403 16.511 183.414 16.856 182.54 17.546C181.666 18.236 181.229 19.11 181.229 20.168C181.229 20.881 181.459 21.479 181.896 22.008C182.563 22.767 183.414 23.158 185.093 23.526C187.324 24.055 188.175 24.584 188.175 25.619C188.175 26.838 186.956 27.62 185.553 27.62C184.104 27.62 183 26.815 182.241 25.228L180.769 26.033C181.712 28.149 183.322 29.207 185.576 29.207C186.841 29.207 187.899 28.862 188.727 28.172C189.578 27.459 189.992 26.585 189.992 25.504ZM201.335 25.504C201.335 24.745 201.036 24.055 200.461 23.48C199.794 22.79 198.713 22.284 197.241 21.962C194.964 21.479 194.366 21.042 194.366 20.03C194.366 19.501 194.619 19.064 195.102 18.673C195.585 18.282 196.183 18.098 196.85 18.098C198.115 18.098 199.081 18.788 199.725 20.168L201.197 19.363C200.369 17.454 198.92 16.511 196.85 16.511C195.746 16.511 194.757 16.856 193.883 17.546C193.009 18.236 192.572 19.11 192.572 20.168C192.572 20.881 192.802 21.479 193.239 22.008C193.906 22.767 194.757 23.158 196.436 23.526C198.667 24.055 199.518 24.584 199.518 25.619C199.518 26.838 198.299 27.62 196.896 27.62C195.447 27.62 194.343 26.815 193.584 25.228L192.112 26.033C193.055 28.149 194.665 29.207 196.919 29.207C198.184 29.207 199.242 28.862 200.07 28.172C200.921 27.459 201.335 26.585 201.335 25.504ZM209.435 12.555C208.63 11.681 207.802 11.244 206.928 11.244C205.295 11.244 204.49 12.371 204.513 14.602H205.939C205.962 13.245 206.307 12.762 206.928 12.762C207.319 12.762 207.779 13.015 208.262 13.521C209.021 14.28 209.78 14.648 210.585 14.648C212.218 14.648 213.069 13.452 213 11.267H211.574C211.528 12.509 211.206 13.13 210.585 13.13C210.194 13.13 209.826 12.946 209.435 12.555ZM208.538 21.916C207.25 21.916 206.123 22.215 205.134 22.79C204.168 23.365 203.685 24.239 203.685 25.458V25.596C203.685 26.631 204.053 27.505 204.812 28.195C205.571 28.862 206.583 29.207 207.802 29.207C209.55 29.207 210.93 28.425 211.942 26.838H211.965V29H213.713V21.065C213.713 20.306 213.598 19.639 213.345 19.041C212.609 17.362 211.114 16.511 208.86 16.511C206.422 16.511 204.743 17.569 203.823 19.685L205.295 20.513C206.054 18.903 207.227 18.098 208.814 18.098C210.907 18.098 211.942 19.087 211.942 21.088V21.916H208.538ZM211.942 23.825C211.942 24.952 211.574 25.849 210.861 26.562C210.148 27.275 209.228 27.62 208.124 27.62C206.583 27.62 205.479 26.815 205.479 25.458C205.548 23.848 207.112 23.365 208.515 23.388H211.942V23.825ZM223.036 29.207C224.83 29.207 226.348 28.586 227.567 27.367C228.786 26.148 229.407 24.63 229.407 22.813C229.407 21.042 228.786 19.57 227.567 18.351C226.348 17.132 224.853 16.511 223.082 16.511C221.265 16.511 219.747 17.132 218.528 18.351C217.309 19.57 216.711 21.088 216.711 22.905C216.711 24.653 217.309 26.148 218.528 27.367C219.747 28.586 221.265 29.207 223.036 29.207ZM223.082 27.62C221.771 27.62 220.667 27.16 219.816 26.217C218.965 25.274 218.551 24.124 218.551 22.813C218.551 21.502 218.965 20.375 219.816 19.455C220.667 18.535 221.725 18.075 223.036 18.075C224.347 18.075 225.428 18.558 226.279 19.501C227.13 20.444 227.567 21.594 227.567 22.905C227.567 24.216 227.13 25.32 226.279 26.24C225.428 27.16 224.37 27.62 223.082 27.62Z" fill="#13335F"/>
<path d="M56.4166 15.4127V16.779C55.492 15.6189 54.2024 15.026 52.7668 15.0002C49.3116 14.9744 47.0243 17.4493 47 21.4194C47.0243 25.4411 49.4576 27.8128 52.7668 27.787C54.251 27.787 55.5163 27.1683 56.4166 26.0082V27.4261C56.4166 28.5089 56.1733 29.3596 55.7596 30.0041C55.2 30.958 54.2024 31.4736 52.9614 31.5251C51.9638 31.5509 50.9662 31.2158 50.2362 30.5197C49.7982 30.133 49.4819 29.5916 49.3116 28.9987L47.1703 29.8237C47.4866 30.8033 47.9733 31.6282 48.6059 32.2727C49.7252 33.4071 51.2582 34 53.0344 34C54.9323 34 56.5383 33.1493 57.5846 31.7314C58.4119 30.597 58.8985 29.1276 58.8985 27.4261V15.4127H56.4166ZM53.0101 25.4668C50.9175 25.4668 49.4089 23.8943 49.4089 21.4194C49.4089 18.9703 50.9175 17.3462 53.0101 17.3462C54.7133 17.3462 56.3679 18.6867 56.3923 21.2905V21.3163V21.3421V21.3678C56.3679 23.9201 54.8593 25.4668 53.0101 25.4668Z" fill="#13335F"/>
<path d="M70.9369 15.4385V21.2905C70.9369 24.4099 69.623 25.8278 67.6521 25.8278C65.9488 25.8278 64.5862 24.6419 64.5862 21.8834V15.4385H62.1773V22.0123C62.1773 26.7301 64.4645 28.148 67.4087 28.148C69.0633 28.148 70.207 27.4519 70.9369 26.3176V27.8128H73.3458V15.4385H70.9369Z" fill="#13335F"/>
<path d="M83.363 15.0002C81.83 15.0002 80.3944 15.6447 79.3968 16.8821V15.4385H76.8176V33.6391H79.3968V26.4207C80.3701 27.6066 81.757 28.2511 83.29 28.2511C86.1368 28.1995 88.6187 25.9824 88.8377 21.935H88.8621C89.0081 17.6555 86.4045 15.0518 83.363 15.0002ZM82.852 25.9567C81.173 25.9824 79.5184 24.6419 79.3968 22.1412V21.471C79.4698 18.8672 81.0271 17.2946 82.9493 17.2946C84.8959 17.2946 86.5262 18.9961 86.4775 21.7545C86.3315 24.6161 84.6039 25.9309 82.852 25.9567Z" fill="#13335F"/>
<path d="M99.4208 15.4385L95.9413 24.6161L92.0724 15.4385H89.4689L94.749 27.7355L92.5347 33.5875H95.114L102 15.4385H99.4208Z" fill="#13335F"/>
<path d="M105 15V15.2859H105.443V17H105.676V15.2859H106.119V15H105Z" fill="#13335F"/>
<path d="M107.229 15.9721L106.658 15H106.458V17H106.69V15.5439L107.229 16.4575L107.768 15.5439V17H108V15H107.799L107.229 15.9721Z" fill="#13335F"/>
<path fill-rule="evenodd" clip-rule="evenodd" d="M115 36L115 11L116 11L116 36L115 36Z" fill="#13335F"/>
<circle cx="24" cy="24" r="11" fill="#88E1F5"/>
<path d="M18.3103 29.1739L19.8621 31L27 25.2174L27 22.7826L20.1724 17L18.6207 18.8261L22.6552 22.4783L9 22.4783L9 25.5217L22.6552 25.5217L18.3103 29.1739Z" fill="#13335F"/>
</svg>
