<svg width="200" height="97" viewBox="0 0 200 97" fill="none" xmlns="http://www.w3.org/2000/svg">
<path d="M93 47.5738C93 46.3652 93 45.1566 93 43.9481C91.9603 43.9481 90.9043 43.9481 89.8646 43.9481C89.8646 42.6267 89.8646 41.3214 89.8646 40C88.4838 40 87.1029 40 85.722 40V43.9481H84C84 45.1566 84 46.3652 84 47.5738H85.722C85.722 48.6696 85.722 49.7815 85.722 50.8773C85.722 50.974 85.722 51.0546 85.722 51.1513C85.722 51.2157 85.722 51.2963 85.722 51.3607C85.722 52.0053 85.722 52.6499 85.7383 53.2945C85.7708 55.0349 86.4043 56.888 87.8827 57.9194C89.1823 58.8379 90.7906 59.0151 92.3502 58.999C91.0668 57.6776 90.3032 55.7439 89.9946 54.1969L89.9783 54.1486V54.1002C89.9296 53.7618 89.8809 53.2139 89.8971 52.6338C89.8809 52.5049 89.8809 52.3921 89.8809 52.2632C89.8809 51.957 89.8809 51.6347 89.8809 51.3285C89.8809 50.0716 89.8809 48.8146 89.8809 47.5738C90.9043 47.5899 91.944 47.5899 93 47.5738Z" fill="#888888"/>
<path d="M83 40.7637C83 39.5611 83 38.3586 83 37.1561C80.8571 36.8194 78.3912 36.9476 76.6735 38.3426C75.1429 39.6413 74.8367 41.7097 74.8878 43.5696C74.8707 43.5696 74.8537 43.5696 74.8367 43.5696H73C73 44.7721 73 45.9747 73 47.1772H74.5816C74.6837 47.1772 74.7857 47.1772 74.8878 47.1772H74.9048V49.1493C74.9048 52.0996 74.9048 55.0498 74.9048 58H76.9116C77.7109 58 78.5102 58 79.3095 58C79.3095 55.0017 79.3095 52.0034 79.3095 49.005V47.1612H82.2517C82.2517 45.9586 82.2517 44.7561 82.2517 43.5536C82.2517 43.5536 79.3605 43.5536 79.2925 43.5536C79.3265 42.7358 79.2245 41.7738 79.9388 41.1645C80.7891 40.5071 81.9796 40.7156 83 40.7637Z" fill="#888888"/>
<path d="M67.7595 54.6747C66.6994 54.9939 65.4144 55.3611 64.4506 54.6268C63.5672 54.0042 63.6796 52.5196 64.6434 52.0247C65.6232 51.5139 66.7636 51.6895 67.7916 51.897C67.888 52.8229 67.888 53.7648 67.7595 54.6747ZM67.9362 57.7876H69.7834C70.1367 57.7876 70.4901 57.7876 70.8274 57.7876H72C71.9679 54.7066 72.0321 51.6256 71.9679 48.5447C71.9357 46.7408 71.2451 44.7294 69.5103 43.8833C67.0367 42.6541 64.1294 42.9415 61.4791 43.3565C61.463 44.6655 61.4791 45.9746 61.4791 47.2836C63.1817 46.9164 65.0289 46.5333 66.7154 47.1559C67.5025 47.4272 67.7916 48.2414 67.9201 48.9917C66.7476 48.848 65.5429 48.5606 64.3542 48.8001C62.9407 48.9757 61.5433 49.6621 60.7562 50.8594C59.4712 52.775 59.8407 55.6644 61.7361 57.0373C63.519 58.3942 66.1211 58.2505 67.9362 57.0213C67.9362 57.2288 67.9362 57.596 67.9362 57.7876Z" fill="#888888"/>
<path d="M46.0499 38C47.6946 38.0164 49.3553 38 51 38C48.5888 41.3388 46.2255 44.7103 43.7824 48.0327C45.9541 51.3552 48.0778 54.6776 50.2655 57.9836C48.5569 58 46.8483 57.9836 45.1397 58C43.2395 55.0376 41.3234 52.0753 39.4232 49.0966C39.4232 52.0589 39.4232 55.0213 39.4232 58C37.9541 58 36.4691 58 35 58C35 51.3224 35 44.6612 35 38C36.4691 38 37.9541 38 39.4232 38C39.4232 41.1424 39.4232 44.2848 39.4232 47.4272C41.6267 44.2848 43.8463 41.1424 46.0499 38Z" fill="#888888"/>
<path d="M52 44.0167C53.4054 44.0167 54.8107 44.0167 56.2161 44.0167C56.2161 44.9667 56.2161 45.9333 56.1999 46.8833C56.8783 45.3 58.3483 44.2667 59.996 44C59.996 45.4167 60.0121 46.85 59.9798 48.2667C58.1868 48.4833 56.3453 49.8667 56.2807 51.8667C56.2322 54.2333 56.2645 56.6167 56.2645 59C54.843 59 53.4215 59 52.0162 59C52.0162 54 52.0162 49.0167 52 44.0167Z" fill="#888888"/>
<path d="M125.049 45.8112C125.742 46.0582 124.009 49.6476 124.009 49.6476C123.316 49.8946 122.639 50.1251 122.166 50.1251C122.403 49.6476 123.663 45.0867 125.049 45.8112ZM126.31 55.4105C125.742 55.6575 125.616 55.7728 124.939 56.0033C124.246 56.2503 123.442 56.2503 122.765 56.0033C120.591 55.0483 121.961 51.5576 121.961 51.5576C130.91 49.2854 129.649 44.247 127.239 44C125.742 44 120.355 44.247 117.834 50.7179C117.487 51.6729 115.077 58.5225 120.481 59C121.631 59 122.891 58.8847 124.041 58.2755C125.081 57.6828 125.884 56.9583 126.562 56.0033C127.113 54.933 126.31 55.4105 126.31 55.4105Z" fill="#888888"/>
<path d="M148.164 56.8589C148.05 56.745 147.806 56.745 147.692 56.6149C146.976 56.1433 147.578 54.8422 147.692 54.1265L149.825 46.5476C149.939 46.0759 150.77 43.5875 147.448 44.0592C144.598 44.5308 142.579 46.3036 142.579 46.3036C142.823 45.588 143.051 44.5308 142.579 44.2869C141.992 44.0429 138.54 45.1163 137.71 45.8319C137.465 45.8319 137.123 46.1897 137.465 46.5476C137.824 47.0192 137.938 47.377 137.71 48.2065C137.237 49.6214 135.82 54.5982 135.462 55.5578C135.104 56.5011 134.632 58.2901 135.462 58.8756C136.048 59.3473 138.54 58.2901 138.898 58.0461C139.257 57.9323 139.615 57.6883 139.729 57.5745C140.201 57.1028 139.485 56.8589 140.201 54.3705C140.201 54.2567 141.032 51.7683 141.618 49.6377C142.09 47.8649 143.751 47.0355 144.354 46.9054C145.298 46.7915 145.07 47.621 144.94 48.2065C144.109 50.8087 143.165 54.7283 142.807 55.6716C142.448 56.6149 141.862 58.5178 142.807 58.8756C143.637 59.4611 147.432 57.8022 147.79 57.5745C148.506 57.0866 148.506 56.8589 148.164 56.8589Z" fill="#888888"/>
<path d="M133.954 56.7991C133.712 56.6834 133.599 56.6834 133.486 56.5511C132.775 56.0717 133.244 54.7491 133.486 54.0216L135.715 46.3174C135.828 45.4743 136.296 44.3831 135.715 44.0359C135.004 43.7879 131.597 44.8791 130.773 45.6065C130.66 45.6065 130.305 45.9702 130.66 46.334C131.015 46.8134 131.015 47.1771 130.773 48.0203C130.418 49.4586 128.77 54.6499 128.415 55.6088C128.06 56.5676 127.591 58.502 128.657 58.8657C129.481 59.4608 133.018 57.9068 133.486 57.5431C134.31 57.1628 134.31 56.7991 133.954 56.7991Z" fill="#888888"/>
<path d="M133.287 42.8594C133.532 43.3789 135.675 42.3398 136.738 41.6769C136.853 41.5515 137.327 41.1574 137.458 40.7632C137.703 39.8495 137.818 39.4554 137.932 38.8104C138.047 38.5416 138.047 38.1654 137.687 38.0221C137.213 37.8967 134.35 38.2908 133.63 39.5808C133.401 40.1182 132.567 42.6086 133.287 42.8594Z" fill="#888888"/>
<path d="M164.933 50.3854C164.574 49.1083 162.435 48.7571 161.602 49.4595C161.128 49.9225 160.884 50.8484 161.014 51.0878C163.039 50.5131 163.398 52.2532 163.039 52.9555C162.321 54.0091 162.092 54.3444 161.128 54.3444H154.825C154.711 54.2326 154.581 54.1049 154.825 53.8814C155.185 53.4185 161.373 45.1653 161.602 44.8141C161.716 44.5747 162.076 44 161.243 44H154.336C153.617 44 153.258 44.2395 152.67 44.8141C152.196 45.3888 151.592 47.1448 151.249 48.3102C151.249 48.3102 151.249 48.7731 151.968 48.1984C152.082 48.0867 152.327 47.6237 152.686 47.6237H156.85C158.157 47.6237 151.266 54.0251 149.11 57.3934C148.751 57.9681 149.355 57.9681 149.698 57.9681H158.744C160.998 57.9681 160.655 58.3193 161.831 56.691C161.847 56.6751 165.537 52.0137 164.933 50.3854Z" fill="#888888"/>
<path d="M115.344 54.4705L117.817 44.7437C119.465 38.8582 120.402 38.6109 121 38.0174H117.122C115.716 38.0174 114.65 40.0617 114.407 41.3806L112.759 47.5134H109.22C109.22 47.5134 111.337 39.699 111.579 38.8747C111.692 38.512 111.692 38.0339 110.998 38.0339C110.884 38.0339 103.468 37.7866 101.108 38.6274C100.042 38.9901 98.5229 39.9463 98.0543 41.3971C97.6988 42.2379 97.2302 43.804 98.2967 46.6891C98.4098 47.0518 98.6522 47.2826 98.7653 47.4145C99.1208 47.6618 102.175 47.1672 102.062 47.1672C102.304 47.1672 102.417 47.0518 102.175 46.5737C101.932 45.9802 101.238 44.8921 101.108 43.804C100.64 39.6001 103.581 39.0066 104.049 38.8747C104.76 38.7593 105.342 38.7593 106.053 38.8747C106.295 38.8747 106.877 38.9901 106.99 39.2374C107.233 39.7155 106.877 40.5563 106.635 41.5125C106.392 42.2379 104.405 49.6731 103.807 51.7173C103.451 53.2835 101.916 56.6467 100.397 57.1248C100.042 57.2402 99.5732 57.2402 99.1046 57.1248C98.636 57.0094 98.1674 56.7621 97.8119 56.5313C96.8747 55.5751 96.2768 53.6462 96.1637 52.2119C96.0506 50.4149 96.4061 49.0961 96.0506 49.0961C95.4365 49.0961 93.3844 49.9204 92.5603 50.5304C92.2209 50.7776 92.2048 50.8271 92.2048 50.8271C92.1886 50.8436 92.1724 50.8601 92.1724 50.8766C91.9624 51.2557 91.9624 52.5911 92.0755 53.4154C92.431 55.2124 93.3682 57.2567 94.7902 58.2129C98.5552 60.8506 105.148 56.0532 105.859 55.5751C106.926 54.6189 107.62 53.3 107.863 52.3273C108.218 51.1239 108.8 49.0796 108.8 49.0796H112.339C112.339 49.0796 110.933 54.487 110.577 55.8059C110.222 56.894 109.996 58.691 110.933 58.5755C114.472 58.5755 115.878 57.2567 115.991 57.1413C116.104 57.0259 116.104 56.7786 115.991 56.6632C115.7 56.5148 114.876 55.674 115.344 54.4705Z" fill="#888888"/>
</svg>
