<svg width="21" height="21" viewBox="0 0 21 21" fill="none" xmlns="http://www.w3.org/2000/svg">
<path d="M20.3735 6.36769C20.3256 5.28112 20.1501 4.53412 19.8986 3.88684C19.6392 3.19976 19.2401 2.58461 18.7173 2.07325C18.2064 1.55392 17.5878 1.15038 16.9094 0.894771C16.259 0.643065 15.5166 0.467355 14.4311 0.419448C13.3375 0.367484 12.9903 0.355469 10.2167 0.355469C7.443 0.355469 7.09583 0.367484 6.00628 0.415391C4.92079 0.463298 4.17453 0.639164 3.52804 0.890713C2.84148 1.15038 2.22695 1.54986 1.71608 2.07325C1.19727 2.58461 0.79428 3.20381 0.53877 3.88293C0.287313 4.53412 0.111776 5.27707 0.0639165 6.36363C0.0120038 7.45831 0 7.80582 0 10.5822C0 13.3586 0.0120038 13.7062 0.0598633 14.7968C0.107723 15.8833 0.283415 16.6303 0.534872 17.2776C0.79428 17.9647 1.19727 18.5798 1.71608 19.0912C2.22695 19.6105 2.84553 20.0141 3.52398 20.2697C4.17453 20.5214 4.91674 20.6971 6.00239 20.745C7.09177 20.7931 7.43911 20.8049 10.2128 20.8049C12.9864 20.8049 13.3336 20.7931 14.4232 20.745C15.5086 20.6971 16.2549 20.5214 16.9014 20.2697C18.2744 19.7383 19.3598 18.6518 19.8907 17.2776C20.142 16.6264 20.3177 15.8833 20.3655 14.7968C20.4134 13.7062 20.4254 13.3586 20.4254 10.5822C20.4254 7.80582 20.4213 7.45831 20.3735 6.36769ZM18.5338 14.7169C18.4898 15.7156 18.3222 16.2549 18.1825 16.6144C17.8393 17.5053 17.1329 18.2124 16.2429 18.556C15.8837 18.6958 15.3411 18.8635 14.3472 18.9074C13.2697 18.9555 12.9465 18.9673 10.2207 18.9673C7.49492 18.9673 7.16769 18.9555 6.09405 18.9074C5.09633 18.8635 4.55756 18.6958 4.19838 18.556C3.75549 18.3921 3.35234 18.1325 3.02512 17.7929C2.6859 17.4613 2.42649 17.0618 2.2628 16.6185C2.12312 16.2589 1.95553 15.7156 1.91173 14.7209C1.86371 13.6423 1.85186 13.3187 1.85186 10.5902C1.85186 7.86169 1.86371 7.53414 1.91173 6.4596C1.95553 5.46089 2.12312 4.92159 2.2628 4.56205C2.42649 4.11857 2.6859 3.71518 3.02918 3.38748C3.36029 3.04792 3.75938 2.78826 4.20243 2.62456C4.56161 2.48474 5.10444 2.31699 6.0981 2.27299C7.17564 2.22508 7.49897 2.21306 10.2246 2.21306C12.9545 2.21306 13.2776 2.22508 14.3513 2.27299C15.349 2.31699 15.8878 2.48474 16.247 2.62456C16.6899 2.78826 17.093 3.04792 17.4202 3.38748C17.7594 3.71908 18.0189 4.11857 18.1825 4.56205C18.3222 4.92159 18.4898 5.46479 18.5338 6.4596C18.5816 7.5382 18.5936 7.86169 18.5936 10.5902C18.5936 13.3187 18.5816 13.6383 18.5338 14.7169Z" fill="white"/>
<path d="M10.2168 5.3291C7.31948 5.3291 4.96875 7.68199 4.96875 10.5823C4.96875 13.4826 7.31948 15.8355 10.2168 15.8355C13.1142 15.8355 15.4648 13.4826 15.4648 10.5823C15.4648 7.68199 13.1142 5.3291 10.2168 5.3291ZM10.2168 13.9899C8.33715 13.9899 6.81251 12.4639 6.81251 10.5823C6.81251 8.70067 8.33715 7.17468 10.2168 7.17468C12.0965 7.17468 13.621 8.70067 13.621 10.5823C13.621 12.4639 12.0965 13.9899 10.2168 13.9899Z" fill="white"/>
<path d="M16.8978 5.12091C16.8978 5.79816 16.3492 6.34729 15.6724 6.34729C14.9959 6.34729 14.4473 5.79816 14.4473 5.12091C14.4473 4.44351 14.9959 3.89453 15.6724 3.89453C16.3492 3.89453 16.8978 4.44351 16.8978 5.12091Z" fill="white"/>
</svg>
