<svg width="29" height="21" viewBox="0 0 29 21" fill="none" xmlns="http://www.w3.org/2000/svg">
<path d="M27.6162 3.96548C27.2996 2.78718 26.3715 1.85833 25.1945 1.54105C23.0443 0.952148 14.4434 0.952148 14.4434 0.952148C14.4434 0.952148 5.84281 0.952148 3.69263 1.51872C2.5383 1.83567 1.58756 2.78734 1.27093 3.96548C0.705078 6.11762 0.705078 10.5809 0.705078 10.5809C0.705078 10.5809 0.705078 15.0666 1.27093 17.1963C1.58789 18.3744 2.51565 19.3033 3.6928 19.6206C5.86546 20.2096 14.4437 20.2096 14.4437 20.2096C14.4437 20.2096 23.0443 20.2096 25.1945 19.643C26.3716 19.3259 27.2996 18.3971 27.6165 17.2189C28.1822 15.0666 28.1822 10.6035 28.1822 10.6035C28.1822 10.6035 28.2048 6.11762 27.6162 3.96548ZM11.7051 14.7042V6.45757L18.8571 10.5809L11.7051 14.7042Z" fill="white"/>
</svg>
