<svg width="22" height="23" viewBox="0 0 22 23" fill="none" xmlns="http://www.w3.org/2000/svg">
<path d="M21.9104 22.4149V22.414H21.9158V14.4668C21.9158 10.5789 21.0796 7.58398 16.5389 7.58398C14.3561 7.58398 12.8912 8.78303 12.2932 9.91978H12.2301V7.94695H7.9248V22.414H12.4078V15.2505C12.4078 13.3643 12.765 11.5405 15.0984 11.5405C17.3977 11.5405 17.4319 13.693 17.4319 15.3715V22.4149H21.9104Z" fill="white"/>
<path d="M0.625 7.94727H5.11338V22.4144H0.625V7.94727Z" fill="white"/>
<path d="M2.86716 0.745117C1.43207 0.745117 0.267578 1.91076 0.267578 3.34726C0.267578 4.78377 1.43207 5.97379 2.86716 5.97379C4.30224 5.97379 5.46673 4.78377 5.46673 3.34726C5.46583 1.91076 4.30134 0.745117 2.86716 0.745117V0.745117Z" fill="white"/>
</svg>
