<svg width="137" height="51" viewBox="0 0 137 51" fill="none" xmlns="http://www.w3.org/2000/svg">
<path d="M71.8469 17.0218V18.852C71.2108 18.1033 70.4192 17.5022 69.5272 17.0905C68.6352 16.6788 67.6642 16.4664 66.6818 16.468C61.7956 16.4342 58.5621 19.7524 58.5283 25.0699C58.5621 30.4592 62.0027 33.6379 66.6818 33.604C67.6675 33.6267 68.6453 33.4237 69.5405 33.0105C70.4358 32.5973 71.2247 31.9849 71.8469 31.22V33.1137C71.8924 34.3323 71.5682 35.5362 70.917 36.5671C70.1266 37.8352 68.7149 38.5369 66.9608 38.6045C65.5511 38.6618 64.1725 38.1796 63.1059 37.2561C62.4797 36.7194 62.0243 36.0112 61.7956 35.2187L58.7693 36.3262C59.1734 37.5662 59.8691 38.691 60.7981 39.6063C62.3831 41.128 64.5515 41.9227 67.0622 41.9227C68.2975 41.9481 69.5219 41.6864 70.6389 41.1583C71.756 40.6302 72.7352 39.8501 73.4996 38.8793C74.7418 37.2171 75.3948 35.1884 75.3552 33.1137V17.0218H71.8469ZM67.0411 30.493C64.0823 30.493 61.9689 28.3795 61.9689 25.0699C61.9689 21.7602 64.0823 19.6129 67.0411 19.6129C69.4503 19.6129 71.7877 21.4093 71.8258 24.9008V25.0022C71.775 28.4218 69.6448 30.493 67.0411 30.493Z" fill="#D6F3F9"/>
<path d="M92.4017 17.0508V24.896C92.4017 29.0722 90.5419 30.9743 87.7522 30.9743C85.3429 30.9743 83.4155 29.385 83.4155 25.6906V17.0508H80.0088V25.8597C80.0088 32.2001 83.2464 34.0811 87.4098 34.0811C89.7514 34.0811 91.3661 33.1512 92.4017 31.6295V33.6331H95.7831V17.0508H92.4017Z" fill="#D6F3F9"/>
<path d="M109.956 16.4674C108.892 16.4541 107.839 16.6743 106.87 17.1125C105.901 17.5507 105.039 18.1962 104.347 19.0035V17.0507H100.699V41.4401H104.347V31.7731C105.031 32.5547 105.877 33.1785 106.825 33.6018C107.774 34.025 108.803 34.2376 109.842 34.2247C113.87 34.1571 117.378 31.1856 117.687 25.7709H117.725C117.94 20.0095 114.259 16.5392 109.956 16.4674ZM109.233 31.1518C106.862 31.1856 104.52 29.3891 104.347 26.0372V25.141C104.453 21.6496 106.655 19.5446 109.373 19.5446C112.09 19.5446 114.445 21.8229 114.364 25.5215C114.157 29.3553 111.714 31.1179 109.233 31.1518Z" fill="#D6F3F9"/>
<path d="M132.67 17.0508L127.746 29.3512L122.276 17.0508H118.607L126.072 33.5358L122.944 41.3768H126.592L136.313 17.055L132.67 17.0508Z" fill="#D6F3F9"/>
<path d="M50.6965 27.5682V23.1299H22.7998V27.5682H50.6965Z" fill="#27ADD9"/>
<path d="M15.842 23.1299H0V27.5682H15.842V23.1299Z" fill="#27ADD9"/>
<path d="M27.4065 0H22.9727V15.8426H27.4065V0Z" fill="#27ADD9"/>
<path d="M27.4065 34.8936H22.9727V50.7361H27.4065V34.8936Z" fill="#27ADD9"/>
<path d="M12.372 9.24023L9.23145 12.3766L17.0764 20.2218L20.2126 17.0854L12.372 9.24023Z" fill="#27ADD9"/>
<path d="M33.5819 30.5137L30.4414 33.6501L38.2989 41.4953L41.4352 38.3589L33.5819 30.5137Z" fill="#27ADD9"/>
<path d="M9.19727 38.3589L12.3335 41.4953L20.1742 33.6501L17.0379 30.5137L9.19727 38.3589Z" fill="#27ADD9"/>
<path d="M30.4795 17.0727L33.62 20.2091L41.4606 12.3682L38.3244 9.22754L30.4795 17.0727Z" fill="#27ADD9"/>
</svg>
