<svg width="108" height="36" viewBox="0 0 108 36" fill="none" xmlns="http://www.w3.org/2000/svg">
<path fill-rule="evenodd" clip-rule="evenodd" d="M101.438 6.64697C101.442 7.92996 100.98 9.93294 99.5325 11.3489C99.1392 11.736 98.7024 12.0788 98.2303 12.3709C97.5514 12.8019 97.0577 13.1019 97.3354 13.8199C97.607 14.5229 98.4463 14.3029 99.2434 14.1259C99.4995 14.0649 104.495 12.8879 104.559 12.8849C105.203 12.7654 105.87 12.8913 106.421 13.2367C106.972 13.582 107.365 14.1203 107.519 14.7399L107.928 16.3849C108.082 17.0048 107.987 17.6587 107.66 18.2119C107.333 18.7651 106.801 19.1753 106.172 19.3579C106.115 19.3819 100.656 20.6758 100.646 20.6778C99.6096 20.9378 99.0027 21.4418 99.0069 22.4178C99.0069 22.8528 99.2671 23.3258 99.587 23.7178C99.587 23.7178 105.54 30.8748 105.57 30.9307C105.959 31.4444 106.131 32.0835 106.049 32.7165C105.968 33.3494 105.64 33.9279 105.133 34.3327L103.786 35.4027C103.279 35.8061 102.631 36.0041 101.978 35.9555C101.325 35.9069 100.716 35.6155 100.278 35.1417C100.23 35.1017 96.5321 30.6948 96.1402 30.2258C95.7483 29.7598 95.2556 29.0478 94.5706 29.0508C93.8897 29.0508 93.4001 29.7668 93.0092 30.2348C92.6194 30.7048 88.9422 35.1297 88.8969 35.1687C88.4614 35.6448 87.854 35.9395 87.2009 35.9917C86.5477 36.0438 85.899 35.8494 85.3895 35.4487C85.3781 35.4387 84.042 34.3857 84.0379 34.3847C83.5293 33.9821 83.1986 33.4054 83.1136 32.7731C83.0287 32.1408 83.196 31.5009 83.5812 30.9848C83.61 30.9288 89.5295 23.7428 89.5295 23.7428C89.8463 23.3498 90.1045 22.8748 90.1034 22.4398C90.0993 21.4638 89.4935 20.9628 88.4536 20.7078C88.4443 20.7078 82.9785 19.4379 82.9229 19.4149C82.2933 19.2351 81.7585 18.8275 81.4288 18.2759C81.0991 17.7243 80.9995 17.0707 81.1507 16.4499C81.1527 16.4349 81.5487 14.8069 81.5508 14.8019C81.7019 14.1818 82.0924 13.6419 82.6415 13.2939C83.1905 12.9458 83.8562 12.8162 84.5008 12.9319C84.5625 12.9319 89.5655 14.0899 89.8226 14.1489C90.6198 14.3209 91.4632 14.5389 91.7296 13.8339C92.0022 13.1139 91.5085 12.8159 90.8276 12.3889C90.3534 12.0994 89.9145 11.7585 89.5192 11.3729C88.0648 9.96594 87.5927 7.96295 87.5896 6.67997C87.5814 3 90.7227 0.0100252 94.4976 2.51204e-05C98.2725 -0.00997501 101.429 2.967 101.437 6.64697H101.438ZM9.70019 28.8998C9.4019 28.8998 8.25811 28.7478 7.62862 27.6288L0.285571 14.9439C-0.467352 13.5999 0.419286 12.4599 1.20512 12.1769L3.1584 11.3239C4.20858 10.8659 5.47271 11.3499 5.94586 12.4209L10.5519 21.4498H10.6208L15.2329 12.4209C15.7061 11.3509 16.9681 10.8659 18.0204 11.3239L19.9737 12.1769C20.7585 12.4599 21.6451 13.5999 20.8922 14.9439L13.5491 27.6288C13.3449 27.9959 13.0468 28.3056 12.6836 28.5281C12.3204 28.7505 11.9043 28.8782 11.4755 28.8988H9.70121L9.70019 28.8998ZM41.9648 28.8998C41.536 28.879 41.1201 28.7512 40.757 28.5285C40.394 28.3059 40.0961 27.996 39.8922 27.6288L32.5481 14.9439C31.7941 13.5999 32.6828 12.4599 33.4687 12.1769L35.4209 11.3239C36.4721 10.8659 37.7332 11.3499 38.2084 12.4209L42.8164 21.4498H42.8843L47.4954 12.4209C47.9696 11.3509 49.2317 10.8659 50.2829 11.3239L52.2362 12.1769C53.021 12.4599 53.9087 13.5999 53.1568 14.9439L45.8127 27.6288C45.6087 27.9961 45.3106 28.306 44.9474 28.5284C44.5841 28.7509 44.1679 28.8785 43.7391 28.8988H41.9658L41.9648 28.8998ZM63.5146 11.2119C68.5793 11.2119 72.6803 15.2119 72.6803 20.1438C72.6803 25.0788 68.5793 29.0798 63.5156 29.0798C58.455 29.0798 54.3509 25.0788 54.3509 20.1438C54.3509 15.2129 58.455 11.2119 63.5156 11.2119H63.5146ZM30.3078 6.12697C30.3078 8.06095 28.6991 9.62694 26.716 9.62694C26.2437 9.62668 25.776 9.53592 25.3398 9.35985C24.9035 9.18378 24.5072 8.92586 24.1736 8.60081C23.8399 8.27577 23.5754 7.88999 23.3952 7.46551C23.2149 7.04103 23.1225 6.58619 23.1232 6.12697C23.1232 4.19299 24.7319 2.627 26.716 2.627C27.1882 2.62753 27.6557 2.71847 28.0918 2.89465C28.5279 3.07082 28.924 3.32877 29.2575 3.65378C29.5911 3.97878 29.8555 4.36446 30.0357 4.78882C30.2159 5.21317 30.3084 5.66787 30.3078 6.12697ZM63.5156 23.6718C64.4765 23.6702 65.3974 23.2977 66.0758 22.6361C66.7542 21.9745 67.1345 21.078 67.1331 20.1438C67.134 19.2101 66.7534 18.3143 66.075 17.6533C65.3966 16.9923 64.4761 16.6202 63.5156 16.6189C63.04 16.6194 62.5692 16.711 62.13 16.8884C61.6908 17.0659 61.2919 17.3256 60.9559 17.653C60.62 17.9803 60.3537 18.3687 60.1722 18.7961C59.9907 19.2235 59.8975 19.6815 59.8981 20.1438C59.8973 20.6064 59.9902 21.0647 60.1716 21.4923C60.353 21.92 60.6192 22.3088 60.9552 22.6364C61.2911 22.964 61.6901 23.224 62.1294 23.4017C62.5688 23.5794 63.0398 23.6712 63.5156 23.6718ZM23.5902 13.5559C23.5902 12.3629 24.5807 11.3959 25.8047 11.3959H27.6582C28.8822 11.3959 29.8738 12.3629 29.8738 13.5559V26.7408C29.8738 27.9338 28.8822 28.8998 27.6582 28.8998H25.8047C25.5134 28.8995 25.2249 28.8434 24.9559 28.7347C24.6869 28.626 24.4425 28.4667 24.2368 28.2661C24.0312 28.0655 23.8682 27.8274 23.7572 27.5655C23.6463 27.3036 23.5895 27.023 23.5902 26.7398V13.5569V13.5559Z" fill="#660099"/>
</svg>
