<svg width="146" height="54" viewBox="0 0 146 54" fill="none" xmlns="http://www.w3.org/2000/svg">
<path d="M53.0269 29.2051V24.7949H24.3428V29.2051H53.0269Z" fill="#27ADD9"/>
<path d="M16.4012 24.7949H0.0732422V29.2051H16.4012V24.7949Z" fill="#27ADD9"/>
<path d="M28.7577 16.8228H24.3447V0.539062H28.7577V16.8228Z" fill="#27ADD9"/>
<path d="M28.7577 37.1768H24.3447V53.4605H28.7577V37.1768Z" fill="#27ADD9"/>
<path d="M12.5312 9.83496L9.4082 12.956L17.7928 21.3353L20.9158 18.2142L12.5312 9.83496Z" fill="#27ADD9"/>
<path d="M35.3759 32.6328L32.2529 35.7538L40.6375 44.1332L43.7605 41.0121L35.3759 32.6328Z" fill="#27ADD9"/>
<path d="M9.40723 41.0454L12.5302 44.1664L20.9148 35.7871L17.7918 32.666L9.40723 41.0454Z" fill="#27ADD9"/>
<path d="M32.251 18.2133L35.374 21.3343L43.7586 12.955L40.6356 9.83398L32.251 18.2133Z" fill="#27ADD9"/>
<path d="M74.4831 17.8736V19.8751C73.0574 18.1789 71.0546 17.2969 68.8142 17.2629C63.4508 17.229 59.8865 20.8589 59.8525 26.7278C59.8865 32.6646 63.6884 36.1588 68.8142 36.0909C71.1225 36.0909 73.0914 35.175 74.4831 33.4788V35.5821C74.4831 37.1765 74.1097 38.4317 73.4648 39.3816C72.5822 40.7725 71.0546 41.5528 69.1197 41.6206C67.5582 41.6545 66.0307 41.1796 64.8765 40.1279C64.1976 39.5512 63.6884 38.771 63.4508 37.8889L60.1241 39.1102C60.5993 40.5689 61.3801 41.7563 62.3645 42.7062C64.0958 44.3685 66.5059 45.2505 69.2555 45.2505C72.2088 45.2505 74.7208 43.9953 76.3162 41.9259C77.6062 40.2636 78.353 38.0925 78.353 35.5821V17.9075H74.4831V17.8736ZM69.1876 32.6985C65.9288 32.6985 63.5866 30.3916 63.5866 26.7278C63.5866 23.1318 65.9288 20.7232 69.1876 20.7232C71.8354 20.7232 74.4153 22.6908 74.4492 26.5243V26.5582V26.5921V26.6261C74.4153 30.4256 72.073 32.6985 69.1876 32.6985Z" fill="#13335F"/>
<path d="M97.0586 17.9072V26.524C97.0586 31.1038 95.0218 33.2071 91.9327 33.2071C89.285 33.2071 87.1803 31.477 87.1803 27.4061V17.9072H83.4463V27.5757C83.4463 34.5302 87.0106 36.5996 91.5933 36.5996C94.1732 36.5996 95.9384 35.5819 97.0925 33.9196V36.1247H100.827V17.9072H97.0586Z" fill="#13335F"/>
<path d="M116.406 17.2627C114.03 17.2627 111.79 18.2126 110.228 20.0445V17.9073H106.223V44.7075H110.228V34.0892C111.756 35.8193 113.894 36.7692 116.271 36.7692C120.684 36.7013 124.553 33.4446 124.893 27.474H124.927C125.164 21.198 121.125 17.3645 116.406 17.2627ZM115.592 33.4107C112.978 33.4446 110.398 31.477 110.228 27.7792V26.7955C110.33 22.962 112.774 20.6551 115.761 20.6551C118.783 20.6551 121.329 23.1655 121.261 27.2365C121.023 31.4431 118.307 33.3768 115.592 33.4107Z" fill="#13335F"/>
<path d="M141.356 17.9072L135.959 31.4092L129.951 17.9072H125.911L134.126 36.0229L130.697 44.6397H134.703L145.43 17.9072H141.356Z" fill="#13335F"/>
</svg>
