<svg width="200" height="97" viewBox="0 0 200 97" fill="none" xmlns="http://www.w3.org/2000/svg">
<path d="M55.2162 44.9114C54.4081 44.2394 47.8128 42.3785 42.3385 41.0862C42.2864 45.2732 42.5471 49.848 43.1206 50.6492C43.9287 51.3212 50.5239 53.1822 56.0243 54.4745C56.0243 50.2874 55.7636 45.7126 55.2162 44.9114Z" fill="#888888"/>
<path d="M49.1673 27C37.4888 27 28 36.408 28 47.9871C28 59.5662 37.4888 68.9742 49.1673 68.9742C60.8718 68.9742 70.3345 59.5662 70.3345 47.9871C70.3345 36.408 60.8718 27 49.1673 27ZM63.4526 55.7668C62.9051 55.9477 59.6988 55.3532 55.9971 54.4745C55.971 58.0929 55.7104 61.4271 55.2151 61.8665C53.8595 62.3317 36.2114 57.912 34.8559 56.7489C33.8132 55.2757 33.8132 40.7502 34.8559 39.7938C35.4033 39.6129 38.6097 40.2074 42.3114 41.0862C42.3374 37.4677 42.5981 34.1335 43.0934 33.6942C44.4489 33.2289 62.097 37.6486 63.4526 38.7858C64.4953 40.3108 64.4953 54.8105 63.4526 55.7668Z" fill="#888888"/>
<path d="M106.074 36.0978C100.913 36.0978 96.8203 38.8634 96.8203 46.0486V49.7446C96.8203 56.9298 100.913 59.6954 106.074 59.6954C111.236 59.6954 115.329 56.9298 115.329 49.7446V46.0486C115.329 38.8634 111.236 36.0978 106.074 36.0978ZM109.959 49.7446C109.959 53.4665 108.707 55.0431 106.074 55.0431C103.442 55.0431 102.242 53.4665 102.242 49.7446V46.0486C102.242 42.3268 103.468 40.7502 106.074 40.7502C108.707 40.7502 109.959 42.3268 109.959 46.0486V49.7446Z" fill="#888888"/>
<path d="M94.9428 36.3821H79.4323C79.0934 36.3821 78.8066 36.6406 78.8066 36.9766V40.1557C78.8066 40.4917 79.0934 40.7502 79.4323 40.7502H84.5155V58.7908C84.5155 59.1268 84.8023 59.4111 85.1412 59.4111H89.2599C89.5988 59.4111 89.8856 59.1268 89.8856 58.7908V40.7502H94.9428C95.2816 40.7502 95.5945 40.4917 95.5945 40.1557V36.9766C95.5945 36.6148 95.2816 36.3821 94.9428 36.3821Z" fill="#888888"/>
<path d="M132.663 36.3821H117.153C116.814 36.3821 116.527 36.6406 116.527 36.9766V40.1557C116.527 40.4917 116.814 40.7502 117.153 40.7502H122.236V58.7908C122.236 59.1268 122.523 59.4111 122.862 59.4111H126.955C127.293 59.4111 127.58 59.1268 127.58 58.7908V40.7502H132.637C132.976 40.7502 133.289 40.4917 133.289 40.1557V36.9766C133.315 36.6148 133.002 36.3821 132.663 36.3821Z" fill="#888888"/>
<path d="M154.144 36.3821H149.765C149.452 36.3821 149.244 36.6406 149.165 36.9508L145.255 54.8363C145.203 55.1723 145.099 55.3015 144.812 55.3015C144.525 55.3015 144.447 55.1723 144.369 54.8363L140.459 36.9508C140.407 36.6406 140.146 36.3821 139.833 36.3821H135.48C135.167 36.3821 134.906 36.5889 134.906 36.8732C134.906 36.9249 134.932 36.9766 134.932 37.0283L139.599 56.232C140.328 59.2043 142.622 59.6695 144.786 59.6695C146.95 59.6695 149.218 59.2043 149.948 56.232L154.614 37.0283C154.614 36.9766 154.64 36.8991 154.64 36.8732C154.666 36.5631 154.457 36.3821 154.144 36.3821Z" fill="#888888"/>
<path d="M167.776 46.5914L163.788 44.4462C162.093 43.5415 161.702 43.1538 161.702 42.2751C161.702 41.1637 162.354 40.6468 164.153 40.6468C166.264 40.6468 169.914 40.9311 170.774 40.9828H170.826C171.243 40.9828 171.347 40.7243 171.347 40.4658V37.3385C171.347 37.0025 171.139 36.8474 170.878 36.7698C169.679 36.4597 166.525 36.0978 164.257 36.0978C158.183 36.0978 156.254 38.7342 156.254 42.1458C156.254 44.3945 157.036 46.3588 159.93 48.0646L164.231 50.5975C165.847 51.5538 166.29 52.0449 166.29 52.9495C166.29 54.4486 165.664 55.1206 163.501 55.1206C162.276 55.1206 158.835 54.8622 157.557 54.7588H157.453C157.14 54.7588 156.88 54.9138 156.88 55.3532V58.4031C156.88 58.7391 157.192 58.92 157.505 59.0234C159.095 59.4369 160.946 59.6954 163.423 59.6954C169.757 59.6954 171.947 56.2062 171.947 52.8978C171.999 50.3908 171.008 48.3489 167.776 46.5914Z" fill="#888888"/>
</svg>
