<svg width="47" height="47" viewBox="0 0 47 47" fill="none" xmlns="http://www.w3.org/2000/svg">
<g clip-path="url(#clip0)">
<path d="M23.4966 46.4474C36.1725 46.4474 46.4483 36.1715 46.4483 23.4957C46.4483 10.8198 36.1725 0.543945 23.4966 0.543945C10.8208 0.543945 0.544922 10.8198 0.544922 23.4957C0.544922 36.1715 10.8208 46.4474 23.4966 46.4474Z" stroke="#13335F" stroke-width="1.2857" stroke-miterlimit="10"/>
<path d="M23.4966 12.9551C25.8768 12.9551 27.798 14.8847 27.798 17.2564C27.798 19.6366 25.8683 21.5577 23.4966 21.5577C21.125 21.5577 19.1953 19.6281 19.1953 17.2564C19.1953 14.8847 21.125 12.9551 23.4966 12.9551Z" fill="#13335F"/>
<path d="M13.1758 34.0368C13.1758 28.3328 17.8001 23.7085 23.5041 23.7085C29.208 23.7085 33.8323 28.3328 33.8323 34.0368H13.1758Z" fill="#13335F"/>
</g>
<defs>
<clipPath id="clip0">
<rect width="47" height="47" fill="white"/>
</clipPath>
</defs>
</svg>
