<svg width="200" height="97" viewBox="0 0 200 97" fill="none" xmlns="http://www.w3.org/2000/svg">
<path d="M60.9759 57.6444L57.7171 69.3739C57.3429 70.7428 56.7465 71 56.0253 71C55.3282 71 54.6565 70.7428 54.2842 69.3739L51.0253 57.6444C51 57.5663 51 57.4889 51 57.439C51 57.1805 51.1488 57 51.3983 57H51.6458C51.8218 57 51.9947 57.1024 52.0954 57.4639L55.2788 69.0905C55.5023 69.8661 55.7505 70.0203 56.0253 70.0203C56.2988 70.0203 56.497 69.8661 56.7212 69.0905L59.9059 57.4639C60.0053 57.1024 60.1782 57 60.3542 57H60.6511C60.9006 57 61 57.1555 61 57.3858C61 57.4639 61 57.5663 60.9759 57.6444Z" fill="#888888"/>
<path d="M64.5676 52.8441H64.4318C64.2058 52.8441 64 52.6417 64 52.3605V50.4817C64 50.2282 64.2058 50 64.4318 50H64.5676C64.7954 50 65 50.2282 65 50.4817V52.3605C65 52.6417 64.7954 52.8441 64.5676 52.8441ZM64.5676 69H64.4318C64.2058 69 64 68.7718 64 68.517V55.842C64 55.5885 64.2058 55.3584 64.4318 55.3584H64.5676C64.7954 55.3584 65 55.5885 65 55.842V68.517C65 68.7718 64.7954 69 64.5676 69Z" fill="#888888"/>
<path d="M77.4551 70.8472H77.3189C77.0201 70.8472 76.776 70.6157 76.776 70.3349V69.6964C75.4449 70.3875 73.8419 71 72.1567 71C70.1202 71 68 70.0806 68 66.8869V66.5533C68 63.9226 69.7675 62.619 74.7118 62.619H76.8037V61.7009C76.8037 59.0442 76.016 57.9967 73.3807 57.9967C71.5876 57.9967 70.7999 58.0982 69.5213 58.2263H69.4128C69.1687 58.2263 68.8976 58.1248 68.8976 57.844V57.6899C68.8976 57.409 69.1147 57.2822 69.5213 57.2295C70.6637 57.1014 71.5876 57 73.3807 57C77.0485 57 78 58.9428 78 61.7009V70.3349C78 70.6157 77.7552 70.8472 77.4551 70.8472ZM76.8037 63.6157H74.7118C70.6091 63.6157 69.1963 64.3823 69.1963 66.5533V66.8869C69.1963 69.2627 70.5275 70.0033 72.1567 70.0033C73.6773 70.0033 74.9822 69.6203 76.8037 68.7009V63.6157Z" fill="#888888"/>
<path d="M91.975 56.602L88.7188 68.5345C88.2004 70.4747 86.8051 71 85.4875 71C84.1699 71 82.7996 70.4747 82.2832 68.5345L79.025 56.602C79 56.55 79 56.4705 79 56.4185C79 56.1822 79.1816 56 79.4138 56H81.999C82.2313 56 82.4372 56.1822 82.5141 56.5226L84.9961 67.5113C85.0987 68.0085 85.2796 68.1667 85.4875 68.1667C85.6934 68.1667 85.875 68.0085 85.9776 67.5113L88.4596 56.5226C88.5379 56.1822 88.7701 56 89.0029 56H91.5882C91.8191 56 92 56.1822 92 56.4185C92 56.4705 92 56.55 91.975 56.602Z" fill="#888888"/>
<path d="M103.497 70.7917H101.368C101.093 70.7917 100.868 70.5583 100.868 70.2741V69.8594C99.7145 70.5833 98.5373 71 97.3339 71C95.255 71 93 70.1706 93 66.6725V66.569C93 63.6154 94.7537 62.0891 99.1138 62.0891H100.692V60.9486C100.692 59.2648 99.9658 58.8507 98.4869 58.8507C96.8831 58.8507 95.2288 58.9536 94.403 59.0571H94.2773C94.0274 59.0571 93.8278 58.9806 93.8278 58.6174V56.9593C93.8278 56.6744 93.9776 56.4931 94.3016 56.416C95.3047 56.2083 96.7574 56 98.4869 56C102.045 56 104 57.633 104 60.9486V70.2741C104 70.5583 103.774 70.7917 103.497 70.7917ZM100.692 64.3683H99.1138C96.8333 64.3683 96.3321 65.1205 96.3321 66.569V66.6725C96.3321 67.9429 96.8831 68.2791 98.1362 68.2791C99.0379 68.2791 99.9658 67.968 100.692 67.5533V64.3683Z" fill="#888888"/>
<path d="M113.518 56.9414C112.215 56.9414 111.2 57.3099 110.187 57.8869V68.4497C110.187 68.7386 109.969 69 109.704 69H107.484C107.219 69 107 68.7386 107 68.4497V54.7088C107 54.4206 107.219 54.1839 107.484 54.1839H109.583C109.848 54.1839 110.067 54.4206 110.067 54.7088V55.2611C111.25 54.2614 112.553 54 113.518 54C113.784 54 114 54.236 114 54.5249V56.4165C114 56.7054 113.784 56.9414 113.518 56.9414Z" fill="#888888"/>
<path d="M128.458 64.6781H119.59V64.7546C119.59 66.2565 120.242 68.0451 122.854 68.0451C124.84 68.0451 126.717 67.8902 127.86 67.7853H127.94C128.213 67.7853 128.43 67.9152 128.43 68.1743V69.8825C128.43 70.2992 128.348 70.4805 127.86 70.557C126.091 70.8688 125.029 71 122.581 71C119.863 71 116 69.5984 116 64.4968V62.5803C116 58.5376 118.366 56 122.527 56C126.717 56 129 58.7209 129 62.5803V64.0307C129 64.4448 128.839 64.6781 128.458 64.6781ZM125.384 62.1392C125.384 60.1192 124.215 58.9542 122.527 58.9542C120.84 58.9542 119.617 60.0928 119.617 62.1392V62.2421H125.384V62.1392Z" fill="#888888"/>
<path d="M131.16 75C130.603 75 130.093 74.9446 129.484 74.8392C129.152 74.7858 129 74.623 129 74.3533V72.6063C129 72.3388 129.204 72.1759 129.534 72.1759H130.678C131.492 72.1759 131.568 71.8269 131.568 70.7519V54.9965C131.568 54.7009 131.796 54.4593 132.075 54.4593H134.415C134.693 54.4593 134.923 54.7009 134.923 54.9965V70.7519C134.923 74.0324 133.524 75 131.16 75ZM134.466 52.442H132.026C131.745 52.442 131.517 52.2005 131.517 51.9049V49.5392C131.517 49.2436 131.745 49 132.026 49H134.466C134.745 49 135 49.2436 135 49.5392V51.9049C135 52.2005 134.745 52.442 134.466 52.442Z" fill="#888888"/>
<path d="M142.5 71C138.23 71 136 68.2547 136 64.5502V62.4504C136 58.7472 138.23 56 142.5 56C146.77 56 149 58.7472 149 62.4504V64.5502C149 68.2547 146.77 71 142.5 71ZM145.41 62.4504C145.41 60.3262 144.403 58.9536 142.5 58.9536C140.597 58.9536 139.592 60.3262 139.592 62.4504V64.5502C139.592 66.6725 140.597 68.0464 142.5 68.0464C144.403 68.0464 145.41 66.6725 145.41 64.5502V62.4504Z" fill="#888888"/>
<path d="M98.0549 38.2949C96.1986 40.6543 94.4442 42.8819 91.6126 42.8819L88.8512 42.9273L85.4041 42.9293C85.1158 42.9581 84.9879 43.1708 85.0009 43.4683C85.0158 43.7653 85.26 44 85.5482 44H91.6126C94.9604 44 96.9608 41.4568 98.8957 38.9991C99.9125 37.7058 100.879 36.4813 102 35.6567C102 35.6567 101.51 35.2568 101.046 35C99.9391 35.9015 98.9847 37.1146 98.0549 38.2949Z" fill="#888888"/>
<path d="M139.39 26.3444C136.343 31.2356 131.935 38.1945 129.445 42.0948C128.013 44.3355 127.367 45.7499 125.224 47.0104C124.336 47.5307 123.313 47.8939 122.234 47.8939C120.449 47.8939 118.755 46.9216 117.197 44.997C117.197 44.997 116.995 44.759 116.524 44.1248C115.236 42.391 114.204 40.6433 113.286 39.0885C110.941 35.118 109.09 31.9818 104.887 31.9818C103.891 31.9818 102.905 32.233 102 32.7446C102 32.7446 102.636 33.19 102.967 33.4929C103.567 33.2205 104.24 33.088 104.887 33.088C108.469 33.088 110.095 35.843 112.347 39.6558C113.269 41.2193 114.305 42.9729 115.608 44.7358C115.961 45.2177 116.29 45.6226 116.29 45.6226C118.082 47.864 120.082 49.002 122.234 49C125.437 49 127.924 46.4782 128.791 45.1441C130.276 42.8576 136.413 33.1986 140.315 26.9336C143.868 21.2313 147.565 21.0908 148 21.0908L144.626 21C143.078 21.8675 141.192 23.4509 139.39 26.3444Z" fill="#888888"/>
<path d="M148.471 21.0829C148.187 21.0753 145.534 21 140.165 21C134.495 21 131.839 22.0565 129.638 25.1899C128.266 27.1434 126.256 30.3451 124.315 33.4406C123.368 34.9509 122.45 36.4126 121.661 37.6419C121.278 38.2394 120.91 38.844 120.548 39.4384C119.402 41.3266 118.313 43.1187 117 44.1657C117.471 44.7734 117.673 45 117.673 45C119.144 43.8346 120.287 41.9533 121.491 39.9739C121.848 39.3858 122.21 38.7895 122.589 38.1996C123.381 36.9671 124.299 35.501 125.249 33.9869C127.184 30.9047 129.185 27.7156 130.543 25.783C132.524 22.9617 134.863 22.0552 140.165 22.0552C142.177 22.0552 143.838 22.0407 145.103 22.0533L148.454 22.1394C148.75 22.1394 148.991 21.9128 149 21.6267C149.008 21.3342 148.772 21.0924 148.471 21.0829Z" fill="#888888"/>
<path d="M113.627 45.9143C111.077 45.9143 109.23 43.0885 107.444 40.3584C106.988 39.6604 106.559 39.0034 106.113 38.3854C104.892 36.6902 103.754 35.3827 102.722 34.4922C102.392 34.1962 101.758 33.7578 101.758 33.7578C100.205 32.7541 98.5138 32.7228 96.5354 33.8118C95.3543 34.4642 94.0266 35.6618 92.1333 37.8364C88.7991 41.6744 85.0366 42.1408 85 42.146L88.4721 42.144C89.8181 41.4642 91.4184 40.3207 92.9593 38.5481C94.472 36.8086 95.5786 35.749 96.5236 35.1082C98.3274 33.8892 99.7361 33.9087 100.757 34.431C101.224 34.6828 101.716 35.0705 101.716 35.0705C102.745 35.8934 103.951 37.2471 105.227 39.0164C105.658 39.6142 106.082 40.2634 106.529 40.9484C108.384 43.7852 110.485 47 113.627 47C114.456 47 115.265 46.8081 116 46.4041C116 46.4041 115.671 46.0067 115.321 45.5331C114.796 45.7927 114.208 45.9143 113.627 45.9143Z" fill="#888888"/>
<path d="M95 35C94.2511 35.6628 93.411 36.5221 92.4199 37.6314C88.9514 41.5225 85.0381 41.9954 85 42L88.6127 41.9987C90.0112 41.3088 91.6778 40.1501 93.2783 38.3529C93.9178 37.6367 94.483 37.0385 95 36.532V35Z" fill="#888888"/>
</svg>
