<svg width="47" height="47" viewBox="0 0 47 47" fill="none" xmlns="http://www.w3.org/2000/svg">
<g clip-path="url(#clip0)">
<path d="M23.4966 46.4474C36.1725 46.4474 46.4483 36.1715 46.4483 23.4957C46.4483 10.8198 36.1725 0.543945 23.4966 0.543945C10.8208 0.543945 0.544922 10.8198 0.544922 23.4957C0.544922 36.1715 10.8208 46.4474 23.4966 46.4474Z" stroke="#13335F" stroke-width="1.2857" stroke-miterlimit="10"/>
<path d="M34.8904 25.3113C34.9576 24.8118 34.9961 24.3122 34.9961 23.7934C34.9961 23.0728 34.9192 22.3618 34.7943 21.6797H31.0762C31.2587 22.3522 31.3644 23.0632 31.3644 23.7934C31.3644 24.3122 31.3068 24.8118 31.2203 25.3113H34.8904Z" fill="#13335F"/>
<path d="M23.1977 11.9951C22.6885 11.9951 22.1793 12.0432 21.6797 12.1008V15.7709C22.1697 15.6748 22.6789 15.6268 23.1977 15.6268C23.9279 15.6268 24.6388 15.7325 25.3113 15.915V12.1969C24.6292 12.072 23.9182 11.9951 23.1977 11.9951Z" fill="#13335F"/>
<path d="M23.1977 31.9694C22.6789 31.9694 22.1793 31.9117 21.6797 31.8253V35.4954C22.1793 35.5626 22.6789 35.601 23.1977 35.601C23.9182 35.601 24.6292 35.5242 25.3113 35.3993V31.6812C24.6388 31.8637 23.9279 31.9694 23.1977 31.9694Z" fill="#13335F"/>
<path d="M15.0223 23.8026C15.0223 23.0725 15.128 22.3615 15.3105 21.689H11.5924C11.4675 22.3807 11.3906 23.0821 11.3906 23.8026C11.3906 24.3118 11.4387 24.821 11.4963 25.3206H15.1664C15.0799 24.821 15.0223 24.3214 15.0223 23.8026Z" fill="#13335F"/>
<path d="M30.6531 27.127C29.9229 28.7506 28.6835 30.0957 27.1367 30.9604V34.9187C30.6819 33.6601 33.4489 30.7586 34.5153 27.1366H30.6531V27.127Z" fill="#13335F"/>
<path d="M19.8647 31.2584C18.0297 30.4417 16.5597 28.9622 15.7431 27.1367H11.8809C13.0146 30.9701 16.0313 33.9965 19.8647 35.1206V31.2584Z" fill="#13335F"/>
<path d="M16.0405 19.8635C16.8956 18.3167 18.2406 17.0677 19.8739 16.3471V12.4849C16.2423 13.5513 13.3504 16.3279 12.0918 19.8635H16.0405Z" fill="#13335F"/>
<path d="M27.127 16.6455C28.4816 17.3949 29.6057 18.5094 30.3551 19.8736H34.3134C33.1221 16.5302 30.48 13.8785 27.1366 12.6968V16.6455H27.127Z" fill="#13335F"/>
<path d="M25.349 8.97754H21.6523V18.4832H25.349V8.97754Z" fill="#13335F"/>
<path d="M38.0232 21.6519H28.5176V25.3485H38.0232V21.6519Z" fill="#13335F"/>
<path d="M18.4841 21.6519H8.97852V25.3485H18.4841V21.6519Z" fill="#13335F"/>
<path d="M25.349 28.5171H21.6523V38.0227H25.349V28.5171Z" fill="#13335F"/>
</g>
<defs>
<clipPath id="clip0">
<rect width="47" height="47" fill="white"/>
</clipPath>
</defs>
</svg>
